{"glyphs":{":":{"x_min":0,"x_max":363,"ha":363,"o":"m 268 356 l 95 356 l 95 548 l 268 548 z m 268 0 l 95 0 l 95 192 l 268 192 z"},"$":{"x_min":0,"x_max":637,"ha":637,"o":"m 599 209 q 599 168 582 132 q 564 95 534 68 q 503 40 459 22 q 415 3 359 0 l 359 -176 l 279 -176 l 279 -2 q 226 -1 162 11 q 97 24 60 43 l 60 185 l 75 185 q 99 169 160 150 q 221 130 281 127 l 281 263 l 238 273 q 200 283 166 296 q 132 309 104 332 q 78 354 62 386 q 47 418 47 469 q 47 542 108 594 q 169 645 279 656 l 279 770 l 359 770 l 359 657 q 403 655 460 644 q 517 632 547 619 l 547 479 l 531 479 q 496 500 454 513 q 412 526 356 529 l 356 405 l 399 396 q 501 374 550 331 q 599 289 599 209 z m 285 414 l 285 528 q 257 526 237 512 q 217 499 217 473 q 217 452 229 438 q 241 424 285 414 z m 426 190 q 426 215 408 230 q 391 246 353 253 l 353 128 q 384 131 405 146 q 426 160 426 190 z"},"?":{"x_min":0,"x_max":566,"ha":566,"o":"m 529 550 q 529 501 515 463 q 500 425 474 396 q 448 369 412 347 q 375 325 331 307 l 331 195 l 164 195 l 164 359 q 191 366 224 379 q 258 392 283 410 q 310 429 327 455 q 344 480 344 515 q 344 563 313 585 q 283 607 228 607 q 187 607 141 589 q 95 571 68 553 l 54 553 l 54 700 q 85 713 146 728 q 206 742 274 742 q 336 742 383 727 q 430 713 463 687 q 496 661 512 626 q 529 591 529 550 z m 344 0 l 152 0 l 152 129 l 344 129 z"},"<":{"x_min":0,"x_max":818,"ha":818,"o":"m 715 7 l 88 267 l 88 375 l 715 635 l 715 500 l 276 320 l 715 142 z"},"'":{"x_min":0,"x_max":275,"ha":275,"o":"m 217 760 l 188 472 l 87 472 l 58 760 z"},"=":{"x_min":0,"x_max":818,"ha":818,"o":"m 709 379 l 109 379 l 109 505 l 709 505 z m 709 137 l 109 137 l 109 263 l 709 263 z"},"a":{"x_min":0,"x_max":599,"ha":599,"o":"m 368 143 l 368 257 q 324 253 297 250 q 271 247 245 237 q 222 229 210 214 q 197 198 197 171 q 197 133 218 118 q 239 104 279 104 q 302 104 325 114 q 349 125 368 143 z m 368 58 q 350 43 336 32 q 322 20 299 8 q 276 -3 254 -9 q 232 -15 193 -15 q 121 -15 73 34 q 24 83 24 157 q 24 218 49 256 q 73 293 119 315 q 166 338 230 347 q 294 355 369 360 l 369 363 q 369 409 335 426 q 302 443 235 443 q 205 443 164 432 q 124 421 85 404 l 70 404 l 70 537 q 96 544 152 554 q 209 564 267 564 q 408 564 473 517 q 538 470 538 373 l 538 0 l 368 0 z"},"L":{"x_min":0,"x_max":572,"ha":572,"o":"m 561 0 l 75 0 l 75 727 l 258 727 l 258 139 l 561 139 z"},"3":{"x_min":0,"x_max":637,"ha":637,"o":"m 590 220 q 590 167 570 123 q 550 79 512 48 q 474 18 422 1 q 370 -15 295 -15 q 210 -15 149 -1 q 88 13 50 31 l 50 188 l 68 188 q 108 163 162 145 q 216 126 260 126 q 287 126 318 131 q 349 135 370 151 q 386 163 396 181 q 406 199 406 231 q 406 264 392 281 q 378 298 354 306 q 331 314 298 315 q 266 316 241 316 l 209 316 l 209 444 l 238 444 q 271 444 299 447 q 327 450 347 459 q 366 468 377 485 q 388 501 388 530 q 388 552 378 566 q 368 580 353 587 q 335 596 312 599 q 288 602 271 602 q 245 602 217 596 q 189 589 163 580 q 142 572 120 559 q 97 547 86 541 l 71 541 l 71 696 q 109 712 173 727 q 236 742 303 742 q 368 742 415 731 q 463 720 497 698 q 534 675 552 640 q 571 604 571 560 q 571 498 535 451 q 499 405 440 391 l 440 384 q 466 380 491 371 q 516 362 539 341 q 561 322 575 292 q 590 262 590 220 z"},";":{"x_min":0,"x_max":363,"ha":363,"o":"m 268 356 l 95 356 l 95 548 l 268 548 z m 298 192 l 127 -181 l 23 -181 l 119 192 z"},"J":{"x_min":0,"x_max":500,"ha":500,"o":"m 435 213 q 435 166 418 124 q 402 83 370 53 q 333 20 283 4 q 233 -11 168 -11 q 120 -11 78 -8 q 35 -4 3 3 l 3 150 l 20 150 q 42 142 65 134 q 89 126 127 126 q 175 126 201 140 q 228 154 238 178 q 250 202 251 234 q 252 265 252 304 l 252 595 l 85 595 l 85 727 l 435 727 z"},"V":{"x_min":0,"x_max":675,"ha":675,"o":"m 683 727 l 433 0 l 242 0 l -8 727 l 182 727 l 340 234 l 498 727 z"},"\"":{"x_min":0,"x_max":489,"ha":489,"o":"m 427 760 l 397 472 l 297 472 l 268 760 z m 221 760 l 192 472 l 91 472 l 62 760 z"},"7":{"x_min":0,"x_max":637,"ha":637,"o":"m 592 583 l 282 0 l 79 0 l 404 590 l 57 590 l 57 727 l 592 727 z"},"S":{"x_min":0,"x_max":633,"ha":633,"o":"m 300 -13 q 216 -13 153 3 q 90 19 36 43 l 36 216 l 52 216 q 107 169 173 145 q 239 120 301 120 q 316 120 342 123 q 368 126 383 134 q 402 142 416 157 q 429 172 429 196 q 429 224 407 241 q 386 258 356 266 q 319 275 277 284 q 234 293 198 306 q 113 335 77 386 q 40 436 40 512 q 40 614 126 677 q 213 740 342 740 q 407 740 471 727 q 536 714 586 691 l 586 525 l 570 525 q 530 560 471 584 q 413 608 352 608 q 328 608 309 604 q 290 601 269 591 q 251 583 239 568 q 227 553 227 534 q 227 506 246 490 q 266 473 323 460 q 359 452 393 444 q 427 436 466 422 q 542 395 578 349 q 615 303 615 227 q 615 119 530 53 q 445 -13 300 -13 z"},"}":{"x_min":0,"x_max":623,"ha":623,"o":"m 596 225 l 564 225 q 474 225 438 189 q 401 153 401 70 l 401 -2 q 401 -95 346 -143 q 291 -191 196 -191 l 67 -191 l 67 -84 l 120 -84 q 149 -84 173 -80 q 197 -75 213 -63 q 229 -50 238 -26 q 246 -2 246 36 l 246 91 q 246 162 286 208 q 327 254 394 278 l 394 290 q 327 314 286 361 q 246 407 246 477 l 246 532 q 246 570 238 594 q 229 619 213 631 q 197 644 173 648 q 149 652 120 652 l 67 652 l 67 760 l 196 760 q 291 760 346 712 q 401 664 401 571 l 401 498 q 401 416 438 379 q 474 343 564 343 l 596 343 z"},"Z":{"x_min":0,"x_max":623,"ha":623,"o":"m 603 0 l 26 0 l 26 136 l 361 588 l 44 588 l 44 727 l 583 727 l 583 588 l 250 139 l 603 139 z"},"x":{"x_min":0,"x_max":604,"ha":604,"o":"m 606 0 l 406 0 l 302 158 l 194 0 l -2 0 l 200 274 l 1 548 l 202 548 l 304 394 l 407 548 l 604 548 l 405 278 z"},")":{"x_min":0,"x_max":454,"ha":454,"o":"m 400 279 q 400 206 387 137 q 374 69 351 13 q 327 -47 293 -100 q 259 -152 218 -201 l 39 -201 l 39 -187 q 78 -152 115 -105 q 152 -59 181 0 q 211 60 229 128 q 247 196 247 279 q 247 359 228 430 q 210 501 181 559 q 150 620 114 665 q 78 710 39 746 l 39 760 l 218 760 q 260 709 294 656 q 328 604 352 545 q 373 491 386 425 q 400 360 400 279 z"},"&":{"x_min":0,"x_max":781,"ha":781,"o":"m 810 0 l 592 0 l 529 62 q 478 20 424 2 q 370 -15 312 -15 q 186 -15 114 47 q 42 109 42 209 q 42 252 53 282 q 64 312 83 337 q 100 360 123 377 q 146 395 168 407 q 147 424 131 440 q 115 456 102 475 q 89 494 83 516 q 76 539 76 568 q 76 600 88 630 q 101 661 130 687 q 158 710 207 726 q 255 742 320 742 q 378 742 421 730 q 463 718 492 697 q 520 677 535 648 q 550 619 550 585 q 550 563 543 536 q 537 509 521 487 q 502 460 471 439 q 441 417 394 402 l 534 267 l 534 424 l 704 424 l 704 370 q 704 350 700 321 q 696 291 689 270 q 682 246 669 221 q 656 195 636 172 l 810 10 z m 374 563 q 374 588 367 603 q 361 618 351 626 q 341 634 330 636 q 319 638 312 638 q 305 638 296 636 q 288 634 276 626 q 268 620 261 605 q 254 590 254 570 q 254 542 273 516 q 292 491 327 463 q 350 484 362 509 q 374 533 374 563 z m 448 144 l 253 329 q 245 318 236 292 q 226 267 226 238 q 226 206 237 182 q 248 159 266 143 q 283 127 305 120 q 327 112 349 112 q 379 112 402 119 q 425 126 448 144 z"},"_":{"x_min":0,"x_max":637,"ha":637,"o":"m 645 -168 l -8 -168 l -8 -70 l 645 -70 z"},"v":{"x_min":0,"x_max":579,"ha":579,"o":"m 579 548 l 382 0 l 195 0 l 0 548 l 180 548 l 292 186 l 403 548 z"},"O":{"x_min":0,"x_max":770,"ha":770,"o":"m 737 363 q 737 187 643 86 q 549 -15 385 -15 q 220 -15 126 87 q 33 189 33 363 q 33 539 126 640 q 220 742 385 742 q 549 742 643 641 q 737 540 737 363 z m 549 364 q 549 429 535 474 q 522 520 500 549 q 476 579 447 592 q 417 605 385 605 q 352 605 324 593 q 297 581 271 550 q 249 522 235 475 q 221 428 221 363 q 221 296 234 252 q 248 208 271 178 q 294 148 324 135 q 354 122 385 122 q 417 122 448 136 q 478 150 500 179 q 523 211 536 253 q 549 295 549 364 z"},"(":{"x_min":0,"x_max":454,"ha":454,"o":"m 415 -201 l 236 -201 q 194 -152 161 -100 q 127 -47 103 13 q 80 69 67 137 q 54 206 54 279 q 54 360 67 425 q 81 491 102 545 q 125 604 159 656 q 193 709 236 760 l 415 760 l 415 746 q 375 710 340 665 q 304 620 273 559 q 244 501 225 430 q 207 359 207 279 q 207 196 225 128 q 243 60 273 0 q 302 -58 339 -105 q 376 -152 415 -187 z"},"C":{"x_min":0,"x_max":667,"ha":667,"o":"m 389 -14 q 225 -14 129 85 q 33 184 33 363 q 33 536 129 638 q 226 741 389 741 q 433 741 467 736 q 502 731 534 723 q 559 715 588 703 q 617 690 635 681 l 635 507 l 617 507 q 604 519 583 535 q 563 552 538 567 q 513 583 482 594 q 452 605 418 605 q 379 605 346 593 q 313 580 283 549 q 256 521 239 474 q 221 427 221 362 q 221 294 239 248 q 257 202 287 174 q 315 146 350 134 q 385 122 419 122 q 456 122 488 134 q 521 146 543 161 q 568 176 586 191 q 605 207 619 219 l 635 219 l 635 48 q 615 39 589 27 q 562 15 535 7 q 500 -3 471 -9 q 441 -14 389 -14 z"},"W":{"x_min":0,"x_max":1028,"ha":1028,"o":"m 1013 727 l 829 0 l 629 0 l 512 450 l 399 0 l 199 0 l 15 727 l 204 727 l 304 239 l 426 727 l 607 727 l 723 239 l 829 727 z"},"A":{"x_min":0,"x_max":685,"ha":685,"o":"m -3 0 l 243 727 l 442 727 l 688 0 l 500 0 l 454 148 l 226 148 l 180 0 z m 414 280 l 340 520 l 266 280 z"},"f":{"x_min":0,"x_max":382,"ha":382,"o":"m 416 631 l 403 631 q 393 634 372 638 q 352 643 333 643 q 281 643 262 624 q 244 605 244 553 l 244 548 l 379 548 l 379 429 l 250 429 l 250 0 l 79 0 l 79 429 l 10 429 l 10 548 l 79 548 l 79 563 q 79 664 131 714 q 184 765 291 765 q 328 765 360 762 q 393 759 416 755 z"},"Q":{"x_min":0,"x_max":770,"ha":770,"o":"m 736 -192 q 707 -200 677 -203 q 648 -207 585 -207 q 527 -207 487 -192 q 447 -178 420 -151 q 393 -125 380 -90 q 366 -54 364 -13 q 210 -6 121 94 q 33 194 33 363 q 33 539 126 640 q 220 742 385 742 q 549 742 643 641 q 737 540 737 363 q 737 235 684 143 q 630 51 533 12 q 534 -41 556 -61 q 579 -82 636 -82 q 658 -82 683 -75 q 708 -68 718 -62 l 736 -62 z m 500 179 q 523 211 536 253 q 549 295 549 364 q 549 429 535 474 q 522 520 500 549 q 476 579 447 592 q 417 605 385 605 q 352 605 324 593 q 297 581 271 550 q 249 522 235 475 q 221 428 221 363 q 221 296 234 252 q 248 208 271 178 q 294 148 324 135 q 354 122 385 122 q 417 122 448 136 q 478 150 500 179 z"},"w":{"x_min":0,"x_max":890,"ha":890,"o":"m 882 548 l 722 0 l 541 0 l 444 354 l 348 0 l 166 0 l 7 548 l 187 548 l 271 186 l 375 548 l 526 548 l 624 186 l 707 548 z"},"-":{"x_min":0,"x_max":431,"ha":431,"o":"m 377 253 l 54 253 l 54 389 l 377 389 z"},"E":{"x_min":0,"x_max":615,"ha":615,"o":"m 75 0 l 75 727 l 567 727 l 567 588 l 257 588 l 257 461 l 542 461 l 542 322 l 257 322 l 257 139 l 567 139 l 567 0 z"},"s":{"x_min":0,"x_max":515,"ha":515,"o":"m 232 -15 q 172 -15 118 -2 q 64 11 29 29 l 29 173 l 43 173 q 55 164 71 153 q 86 142 114 129 q 138 118 168 110 q 198 102 233 102 q 270 102 297 113 q 325 125 325 149 q 325 168 312 178 q 299 188 263 196 q 243 201 213 207 q 184 212 161 220 q 96 240 64 279 q 31 318 31 382 q 31 419 48 451 q 65 484 98 509 q 130 534 178 549 q 227 563 287 563 q 345 563 393 552 q 441 541 475 524 l 475 386 l 461 386 q 452 393 433 404 q 414 416 396 424 q 375 434 348 440 q 321 446 293 446 q 256 446 231 434 q 205 421 205 400 q 205 381 218 371 q 230 360 273 350 q 295 344 323 339 q 352 334 378 325 q 438 306 468 269 q 499 232 499 171 q 499 133 480 98 q 462 63 429 39 q 394 13 346 -1 q 299 -15 232 -15 z"},">":{"x_min":0,"x_max":818,"ha":818,"o":"m 730 267 l 103 7 l 103 142 l 542 321 l 103 500 l 103 635 l 730 375 z"},"l":{"x_min":0,"x_max":302,"ha":302,"o":"m 236 0 l 65 0 l 65 760 l 236 760 z"},"8":{"x_min":0,"x_max":637,"ha":637,"o":"m 606 203 q 606 156 587 115 q 567 75 530 46 q 493 17 440 0 q 386 -17 317 -17 q 244 -17 189 0 q 134 17 99 46 q 64 75 47 114 q 31 153 31 196 q 31 259 65 300 q 100 342 165 370 l 165 373 q 101 404 76 448 q 50 493 50 547 q 50 587 68 623 q 85 658 121 686 q 154 712 205 728 q 256 744 319 744 q 387 744 437 729 q 487 715 519 691 q 552 667 570 634 q 587 600 587 560 q 587 508 557 467 q 527 425 465 396 l 465 394 q 538 364 572 317 q 606 269 606 203 z m 411 539 q 411 576 386 598 q 362 620 320 620 q 280 620 255 600 q 230 580 230 551 q 230 521 245 504 q 260 486 292 471 q 305 464 324 457 q 343 449 374 438 q 393 462 402 486 q 411 509 411 539 z m 426 195 q 426 230 411 250 q 396 269 346 292 q 332 299 305 310 q 278 320 258 329 q 239 310 224 281 q 209 253 209 220 q 209 169 241 139 q 273 108 326 108 q 340 108 359 113 q 377 118 391 127 q 407 139 416 154 q 426 169 426 195 z"},"\\":{"x_min":0,"x_max":577,"ha":577,"o":"m 524 -158 l 384 -158 l 95 760 l 236 760 z"},"e":{"x_min":0,"x_max":594,"ha":594,"o":"m 346 -15 q 191 -15 108 60 q 25 134 25 271 q 25 405 103 485 q 180 565 318 565 q 444 565 508 498 q 571 430 571 303 l 571 242 l 197 242 q 199 204 213 178 q 227 152 249 137 q 271 122 300 115 q 330 109 364 109 q 394 109 423 115 q 452 122 476 133 q 497 142 514 153 q 532 164 543 172 l 562 172 l 562 31 q 541 22 523 15 q 506 8 476 1 q 448 -6 418 -10 q 389 -15 346 -15 z m 403 345 q 401 399 378 427 q 354 456 305 456 q 255 456 227 426 q 199 396 196 345 z"},"b":{"x_min":0,"x_max":632,"ha":632,"o":"m 428 278 q 428 360 403 396 q 378 431 327 431 q 304 431 281 423 q 258 416 236 401 l 236 126 q 253 119 271 117 q 288 114 305 114 q 367 114 398 155 q 428 196 428 278 z m 603 282 q 603 151 537 70 q 470 -11 372 -11 q 331 -11 301 -1 q 271 8 236 27 l 229 0 l 65 0 l 65 760 l 236 760 l 236 491 q 274 523 313 543 q 352 563 403 563 q 499 563 551 489 q 603 414 603 282 z"},"%":{"x_min":0,"x_max":1199,"ha":1199,"o":"m 476 506 q 476 385 422 326 q 368 267 265 267 q 160 267 106 326 q 52 384 52 504 q 52 624 107 682 q 162 741 265 741 q 371 741 423 682 q 476 624 476 506 z m 854 727 l 473 0 l 344 0 l 725 727 z m 1146 224 q 1146 103 1092 44 q 1038 -15 935 -15 q 830 -15 776 43 q 722 102 722 222 q 722 341 777 400 q 832 459 935 459 q 1041 459 1093 400 q 1146 341 1146 224 z m 336 504 q 336 535 334 561 q 331 586 323 603 q 315 620 301 629 q 287 637 265 637 q 242 637 229 629 q 215 620 207 603 q 200 587 197 560 q 194 533 194 504 q 194 468 196 447 q 198 425 207 406 q 214 389 228 380 q 243 371 265 371 q 287 371 301 379 q 315 388 323 406 q 330 421 333 446 q 336 470 336 504 z m 1006 222 q 1006 253 1004 278 q 1001 304 993 321 q 985 338 971 346 q 957 355 935 355 q 912 355 898 346 q 885 338 877 320 q 870 305 867 278 q 864 251 864 222 q 864 186 866 164 q 868 143 876 124 q 884 106 898 97 q 913 88 935 88 q 957 88 971 97 q 985 106 993 124 q 1000 139 1003 164 q 1006 188 1006 222 z"},"m":{"x_min":0,"x_max":954,"ha":954,"o":"m 721 0 l 721 274 q 721 314 719 342 q 718 370 710 388 q 703 405 688 413 q 672 421 645 421 q 625 421 606 413 q 587 404 564 389 l 564 0 l 393 0 l 393 274 q 393 314 391 342 q 389 370 382 388 q 375 405 359 413 q 344 421 316 421 q 295 421 275 412 q 255 402 236 389 l 236 0 l 65 0 l 65 548 l 236 548 l 236 488 q 278 523 315 543 q 353 563 399 563 q 449 563 487 540 q 525 516 545 468 q 595 514 638 539 q 682 563 727 563 q 765 563 795 551 q 826 539 847 515 q 870 488 881 452 q 893 416 893 357 l 893 0 z"},"#":{"x_min":0,"x_max":818,"ha":818,"o":"m 757 446 l 609 446 l 568 286 l 701 286 l 701 173 l 540 173 l 496 0 l 383 0 l 426 173 l 302 173 l 259 0 l 144 0 l 188 173 l 61 173 l 61 286 l 216 286 l 256 446 l 118 446 l 118 558 l 284 558 l 326 727 l 441 727 l 399 558 l 522 558 l 565 727 l 680 727 l 637 558 l 757 558 z m 496 447 l 370 447 l 329 285 l 455 285 z"},",":{"x_min":0,"x_max":312,"ha":312,"o":"m 272 192 l 102 -181 l -2 -181 l 94 192 z"},"n":{"x_min":0,"x_max":640,"ha":640,"o":"m 579 0 l 407 0 l 407 272 q 407 305 405 338 q 402 371 395 387 q 386 405 369 413 q 353 421 325 421 q 304 421 282 414 q 261 406 236 389 l 236 0 l 65 0 l 65 548 l 236 548 l 236 488 q 278 523 318 543 q 358 563 406 563 q 490 563 535 510 q 579 458 579 357 z"},"h":{"x_min":0,"x_max":640,"ha":640,"o":"m 579 0 l 407 0 l 407 272 q 407 305 405 338 q 402 371 395 387 q 386 405 369 413 q 353 421 325 421 q 304 421 282 414 q 261 406 236 389 l 236 0 l 65 0 l 65 760 l 236 760 l 236 488 q 278 523 318 543 q 358 563 406 563 q 490 563 535 510 q 579 458 579 357 z"},"z":{"x_min":0,"x_max":526,"ha":526,"o":"m 503 0 l 23 0 l 23 113 l 285 420 l 35 420 l 35 548 l 498 548 l 498 438 l 235 131 l 503 131 z"},"B":{"x_min":0,"x_max":686,"ha":686,"o":"m 657 223 q 657 168 636 127 q 616 86 581 60 q 540 27 491 14 q 442 0 366 0 l 75 0 l 75 727 l 332 727 q 412 727 453 721 q 495 715 531 695 q 570 674 589 639 q 608 604 608 558 q 608 505 582 463 q 555 422 508 402 l 508 398 q 576 384 616 341 q 657 297 657 223 z m 423 521 q 423 539 414 558 q 405 576 386 584 q 368 592 343 593 q 318 594 270 594 l 257 594 l 257 440 l 280 440 q 327 440 345 441 q 364 442 384 451 q 406 461 415 479 q 423 498 423 521 z m 469 226 q 469 260 455 279 q 441 298 414 308 q 397 314 368 315 q 339 315 291 315 l 257 315 l 257 133 l 267 133 q 338 133 365 134 q 393 135 421 147 q 446 158 457 179 q 469 200 469 226 z"},"K":{"x_min":0,"x_max":696,"ha":696,"o":"m 712 0 l 492 0 l 293 295 l 258 246 l 258 0 l 75 0 l 75 727 l 258 727 l 258 404 l 490 727 l 702 727 l 442 390 z"},"R":{"x_min":0,"x_max":726,"ha":726,"o":"m 748 0 l 525 0 l 322 267 l 257 267 l 257 0 l 75 0 l 75 727 l 368 727 q 428 727 473 719 q 518 712 556 688 q 595 663 618 625 q 641 586 641 527 q 641 444 604 392 q 566 340 503 309 z m 454 504 q 454 532 443 552 q 433 571 408 582 q 391 589 370 591 q 349 593 318 593 l 257 593 l 257 397 l 309 397 q 347 397 374 402 q 400 407 419 422 q 437 436 445 455 q 454 474 454 504 z"},"T":{"x_min":0,"x_max":612,"ha":612,"o":"m 215 0 l 215 588 l 0 588 l 0 727 l 612 727 l 612 588 l 397 588 l 397 0 z"},"P":{"x_min":0,"x_max":657,"ha":657,"o":"m 635 498 q 635 447 619 401 q 603 355 572 324 q 554 305 531 289 q 509 273 482 262 q 456 250 424 244 q 393 238 354 238 l 258 238 l 258 0 l 75 0 l 75 727 l 357 727 q 420 727 466 716 q 512 704 549 679 q 590 652 612 606 q 635 561 635 498 z m 447 493 q 447 524 433 546 q 418 568 397 577 q 372 588 348 590 q 324 591 284 591 l 258 591 l 258 374 l 271 374 q 296 374 319 374 q 342 375 359 377 q 374 380 390 387 q 407 394 416 403 q 434 421 441 440 q 447 460 447 493 z"},"|":{"x_min":0,"x_max":637,"ha":637,"o":"m 387 -191 l 250 -191 l 250 760 l 387 760 z"},"t":{"x_min":0,"x_max":416,"ha":416,"o":"m 275 -11 q 171 -11 123 32 q 76 75 76 173 l 76 429 l 10 429 l 10 548 l 76 548 l 76 705 l 247 705 l 247 548 l 411 548 l 411 429 l 247 429 l 247 235 q 247 206 247 185 q 248 163 255 146 q 262 129 279 119 q 296 109 330 109 q 343 109 365 115 q 388 121 396 125 l 411 125 l 411 5 q 383 -2 352 -7 q 321 -11 275 -11 z"},"M":{"x_min":0,"x_max":893,"ha":893,"o":"m 818 0 l 636 0 l 636 482 l 504 171 l 379 171 l 247 482 l 247 0 l 75 0 l 75 727 l 286 727 l 447 368 l 607 727 l 818 727 z"},"g":{"x_min":0,"x_max":629,"ha":629,"o":"m 393 173 l 393 421 q 380 427 362 431 q 343 435 325 435 q 263 435 232 395 q 201 355 201 284 q 201 249 206 224 q 210 199 223 180 q 235 162 255 152 q 275 143 306 143 q 329 143 351 150 q 373 158 393 173 z m 564 63 q 564 -13 542 -66 q 520 -120 482 -149 q 444 -180 391 -193 q 337 -207 272 -207 q 218 -207 169 -199 q 120 -192 83 -183 l 83 -46 l 104 -46 q 116 -51 134 -57 q 151 -62 168 -67 q 189 -73 209 -76 q 229 -80 250 -80 q 294 -80 323 -71 q 352 -62 367 -45 q 381 -28 387 -5 q 393 19 393 54 l 393 64 q 364 39 326 23 q 289 8 249 8 q 142 8 84 77 q 26 146 26 288 q 26 353 44 404 q 62 455 94 491 q 124 526 167 545 q 210 563 256 563 q 298 563 332 553 q 365 542 392 524 l 398 548 l 564 548 z"},"j":{"x_min":0,"x_max":363,"ha":363,"o":"m 297 -10 q 297 -103 242 -155 q 187 -207 100 -207 q 53 -207 15 -202 q -23 -198 -41 -194 l -41 -68 l -28 -68 q -11 -73 9 -76 q 29 -80 42 -80 q 91 -80 109 -49 q 126 -19 126 50 l 126 429 l 28 429 l 28 548 l 297 548 z m 297 626 l 115 626 l 115 760 l 297 760 z"},"i":{"x_min":0,"x_max":302,"ha":302,"o":"m 236 0 l 65 0 l 65 548 l 236 548 z m 241 626 l 61 626 l 61 760 l 241 760 z"},"y":{"x_min":0,"x_max":576,"ha":576,"o":"m 577 548 l 300 -201 l 117 -201 l 200 13 l -1 548 l 178 548 l 293 205 l 401 548 z"},"@":{"x_min":0,"x_max":920,"ha":920,"o":"m 855 324 q 855 257 836 185 q 816 113 789 68 l 550 68 l 543 106 q 530 97 518 89 q 505 82 490 76 q 473 70 458 67 q 444 64 418 64 q 381 64 349 81 q 317 97 293 128 q 271 159 257 206 q 244 253 244 308 q 244 365 260 411 q 277 458 305 491 q 331 522 367 540 q 403 558 442 558 q 473 558 498 545 q 522 533 535 520 l 535 549 l 643 550 l 643 155 l 716 155 q 730 188 740 231 q 749 275 749 321 q 749 401 727 461 q 706 521 667 562 q 628 603 575 622 q 523 642 462 642 q 404 642 353 620 q 301 598 258 555 q 216 513 191 451 q 166 390 166 315 q 166 235 190 173 q 213 111 255 69 q 295 28 348 7 q 401 -15 459 -15 q 500 -15 549 -7 q 597 0 637 12 l 637 -92 q 593 -102 552 -107 q 510 -112 459 -112 q 373 -112 299 -81 q 225 -50 171 6 q 118 63 88 142 q 58 221 58 316 q 58 406 89 483 q 120 561 175 619 q 229 676 303 709 q 377 741 461 741 q 545 741 617 711 q 689 681 742 626 q 795 571 825 495 q 855 418 855 324 z m 533 197 l 533 443 q 513 454 496 458 q 479 463 458 463 q 410 463 385 421 q 359 379 359 310 q 359 233 381 196 q 402 158 450 158 q 476 158 494 168 q 513 178 533 197 z"},".":{"x_min":0,"x_max":312,"ha":312,"o":"m 243 0 l 70 0 l 70 192 l 243 192 z"},"p":{"x_min":0,"x_max":629,"ha":629,"o":"m 603 282 q 603 150 536 70 q 470 -11 372 -11 q 331 -11 301 -1 q 271 8 236 27 l 236 -201 l 65 -201 l 65 548 l 236 548 l 236 491 q 274 523 313 543 q 352 563 403 563 q 499 563 551 488 q 603 412 603 282 z m 428 278 q 428 358 404 395 q 379 431 327 431 q 304 431 281 423 q 258 416 236 401 l 236 125 q 250 120 266 117 q 283 115 305 115 q 368 115 398 156 q 428 196 428 278 z"},"X":{"x_min":0,"x_max":685,"ha":685,"o":"m 690 0 l 479 0 l 339 232 l 196 0 l -6 0 l 230 366 l 3 727 l 215 727 l 346 508 l 480 727 l 683 727 l 455 374 z"},"*":{"x_min":0,"x_max":637,"ha":637,"o":"m 553 420 l 503 346 l 351 450 l 356 280 l 258 280 l 261 445 l 112 346 l 62 421 l 230 520 l 63 620 l 112 695 l 261 594 l 258 760 l 355 760 l 353 594 l 503 695 l 553 620 l 384 521 z"},"Y":{"x_min":0,"x_max":670,"ha":670,"o":"m 680 727 l 429 304 l 429 0 l 246 0 l 246 294 l -9 727 l 199 727 l 341 467 l 479 727 z"},"c":{"x_min":0,"x_max":527,"ha":527,"o":"m 334 -15 q 267 -15 210 2 q 154 20 112 55 q 71 91 48 145 q 25 199 25 272 q 25 351 50 406 q 75 461 118 497 q 159 531 214 547 q 270 563 330 563 q 375 563 420 553 q 466 542 512 520 l 512 373 l 490 373 q 479 383 465 395 q 450 406 432 416 q 414 426 390 433 q 367 440 338 440 q 272 440 237 395 q 201 349 201 272 q 201 189 239 149 q 277 108 341 108 q 373 108 397 116 q 422 123 439 133 q 457 144 469 155 q 481 166 490 174 l 512 174 l 512 28 q 497 21 478 13 q 458 5 438 0 q 414 -7 392 -11 q 370 -15 334 -15 z"},"!":{"x_min":0,"x_max":343,"ha":343,"o":"m 269 727 l 249 209 l 94 209 l 74 727 z m 268 0 l 75 0 l 75 129 l 268 129 z"},"/":{"x_min":0,"x_max":577,"ha":577,"o":"m 487 760 l 198 -158 l 58 -158 l 346 760 z"},"[":{"x_min":0,"x_max":454,"ha":454,"o":"m 388 -191 l 81 -191 l 81 760 l 388 760 l 388 645 l 229 645 l 229 -76 l 388 -76 z"},"6":{"x_min":0,"x_max":637,"ha":637,"o":"m 604 248 q 604 133 531 59 q 458 -15 331 -15 q 268 -15 218 3 q 168 21 133 57 q 92 99 70 166 q 48 232 48 324 q 48 420 68 494 q 89 568 135 625 q 180 680 251 710 q 323 741 421 741 q 457 741 493 736 q 529 731 542 729 l 542 585 l 529 585 q 516 592 487 600 q 458 608 420 608 q 334 608 288 563 q 242 518 231 434 q 267 457 303 471 q 340 484 387 484 q 426 484 460 474 q 495 463 521 443 q 559 415 581 368 q 604 321 604 248 z m 392 138 q 406 155 413 176 q 421 197 421 239 q 421 274 412 297 q 403 320 387 333 q 371 347 351 352 q 330 357 307 357 q 288 357 268 353 q 248 348 230 340 q 230 335 229 324 q 229 313 229 296 q 229 233 240 195 q 251 157 268 138 q 280 122 297 115 q 313 108 331 108 q 346 108 363 116 q 380 123 392 138 z"},"r":{"x_min":0,"x_max":434,"ha":434,"o":"m 434 387 l 419 387 q 410 390 391 392 q 373 394 350 394 q 323 394 294 386 q 264 378 236 367 l 236 0 l 65 0 l 65 548 l 236 548 l 236 470 q 248 480 269 497 q 290 513 307 523 q 325 534 350 542 q 375 550 396 550 q 405 550 415 550 q 425 549 434 548 z"},"2":{"x_min":0,"x_max":637,"ha":637,"o":"m 608 0 l 74 0 l 74 119 q 142 172 196 220 q 250 268 291 311 q 344 367 368 410 q 392 452 392 497 q 392 548 361 575 q 331 602 277 602 q 249 602 224 595 q 200 588 174 578 q 149 566 132 555 q 114 543 105 537 l 91 537 l 91 696 q 122 710 188 726 q 253 741 313 741 q 443 741 510 684 q 576 626 576 521 q 576 457 546 395 q 516 333 445 263 q 401 219 360 185 q 318 151 300 137 l 608 137 z"},"{":{"x_min":0,"x_max":623,"ha":623,"o":"m 556 -191 l 427 -191 q 333 -191 277 -143 q 222 -95 222 -2 l 222 70 q 222 153 186 189 q 149 225 59 225 l 27 225 l 27 343 l 59 343 q 149 343 186 379 q 222 416 222 498 l 222 571 q 222 664 277 712 q 333 760 427 760 l 556 760 l 556 652 l 503 652 q 474 652 450 648 q 426 644 410 631 q 394 619 385 594 q 377 570 377 532 l 377 477 q 377 407 337 361 q 296 314 229 290 l 229 278 q 296 254 337 208 q 377 162 377 91 l 377 36 q 377 -2 385 -26 q 394 -50 410 -63 q 426 -76 450 -80 q 474 -84 503 -84 l 556 -84 z"},"9":{"x_min":0,"x_max":637,"ha":637,"o":"m 589 404 q 589 312 567 234 q 546 157 500 102 q 454 46 384 16 q 314 -14 213 -14 q 179 -14 142 -10 q 105 -5 93 -2 l 93 141 l 107 141 q 121 134 146 126 q 171 119 215 119 q 251 119 284 128 q 317 138 341 158 q 366 180 383 212 q 399 244 405 292 q 366 268 333 255 q 299 242 250 242 q 212 242 177 252 q 143 262 115 283 q 77 312 55 359 q 33 405 33 478 q 33 535 52 583 q 72 631 107 667 q 143 702 194 722 q 245 742 308 742 q 372 742 421 724 q 470 706 505 669 q 546 628 568 562 q 589 497 589 404 z m 408 432 q 408 491 398 529 q 388 567 370 589 q 357 604 342 611 q 326 618 307 618 q 291 618 276 612 q 260 605 246 589 q 233 575 225 547 q 216 520 216 487 q 216 452 225 429 q 234 407 250 393 q 265 380 285 375 q 305 369 330 369 q 350 369 372 375 q 394 380 407 386 q 407 392 407 402 q 408 412 408 432 z"}," ":{"x_min":0,"x_max":293,"ha":293,"o":""},"I":{"x_min":0,"x_max":483,"ha":483,"o":"m 438 0 l 46 0 l 46 127 l 150 127 l 150 600 l 46 600 l 46 727 l 438 727 l 438 600 l 333 600 l 333 127 l 438 127 z"},"H":{"x_min":0,"x_max":764,"ha":764,"o":"m 689 0 l 506 0 l 506 322 l 258 322 l 258 0 l 75 0 l 75 727 l 258 727 l 258 461 l 506 461 l 506 727 l 689 727 z"},"4":{"x_min":0,"x_max":637,"ha":637,"o":"m 616 169 l 518 169 l 518 -2 l 342 -2 l 342 169 l 22 169 l 22 305 l 336 727 l 518 727 l 518 300 l 616 300 z m 342 300 l 342 548 l 158 300 z"},"~":{"x_min":0,"x_max":818,"ha":818,"o":"m 754 483 q 754 329 703 246 q 651 164 551 164 q 518 164 492 171 q 467 179 447 192 q 426 207 411 223 q 396 238 379 258 q 365 274 353 291 q 340 308 327 322 q 315 335 301 344 q 286 353 272 353 q 245 353 230 340 q 216 326 207 301 q 199 274 197 238 q 194 202 193 163 l 66 163 q 66 321 118 401 q 170 482 270 482 q 302 482 327 474 q 353 466 374 452 q 395 439 412 420 q 430 402 442 388 q 455 371 469 354 q 482 336 495 323 q 507 310 521 301 q 534 292 548 292 q 574 292 590 306 q 605 320 613 345 q 622 372 624 408 q 626 444 627 483 z"},"D":{"x_min":0,"x_max":757,"ha":757,"o":"m 725 363 q 725 261 680 181 q 636 101 568 58 q 511 21 445 10 q 378 0 303 0 l 75 0 l 75 727 l 301 727 q 377 727 444 717 q 511 708 570 670 q 642 624 683 546 q 725 468 725 363 z m 537 364 q 537 436 512 487 q 488 538 437 567 q 399 587 359 589 q 318 591 261 591 l 258 591 l 258 136 l 261 136 q 323 136 365 138 q 407 141 445 165 q 490 193 514 243 q 537 292 537 364 z"},"^":{"x_min":0,"x_max":818,"ha":818,"o":"m 734 329 l 582 329 l 401 591 l 236 328 l 84 328 l 343 727 l 460 727 z"},"0":{"x_min":0,"x_max":637,"ha":637,"o":"m 599 364 q 599 270 583 199 q 568 128 535 81 q 502 33 449 9 q 396 -15 318 -15 q 242 -15 188 9 q 135 33 102 82 q 68 129 53 199 q 38 270 38 363 q 38 460 53 528 q 68 597 103 646 q 137 694 190 718 q 244 742 318 742 q 397 742 449 717 q 502 692 536 644 q 569 596 584 525 q 599 455 599 364 z m 416 364 q 416 499 393 553 q 371 607 318 607 q 266 607 244 553 q 221 499 221 363 q 221 230 244 175 q 266 119 318 119 q 371 119 393 175 q 416 230 416 364 z"},"F":{"x_min":0,"x_max":581,"ha":581,"o":"m 562 588 l 257 588 l 257 451 l 538 451 l 538 312 l 257 312 l 257 0 l 75 0 l 75 727 l 562 727 z"},"`":{"x_min":0,"x_max":546,"ha":546,"o":"m 395 626 l 278 626 l 132 818 l 293 818 z"},"k":{"x_min":0,"x_max":603,"ha":603,"o":"m 614 0 l 411 0 l 263 239 l 236 203 l 236 0 l 65 0 l 65 760 l 236 760 l 236 334 l 398 548 l 600 548 l 408 312 z"},"u":{"x_min":0,"x_max":640,"ha":640,"o":"m 575 0 l 404 0 l 404 61 q 359 23 322 4 q 285 -15 234 -15 q 152 -15 107 36 q 61 88 61 191 l 61 548 l 233 548 l 233 276 q 233 234 235 207 q 237 180 246 162 q 253 145 270 136 q 286 127 315 127 q 333 127 358 136 q 383 145 404 160 l 404 548 l 575 548 z"},"]":{"x_min":0,"x_max":454,"ha":454,"o":"m 373 -191 l 66 -191 l 66 -76 l 225 -76 l 225 645 l 66 645 l 66 760 l 373 760 z"},"U":{"x_min":0,"x_max":739,"ha":739,"o":"m 369 -15 q 223 -15 144 56 q 65 126 65 263 l 65 727 l 248 727 l 248 273 q 248 198 276 161 q 305 124 369 124 q 432 124 462 159 q 491 195 491 273 l 491 727 l 674 727 l 674 263 q 674 129 597 57 q 520 -15 369 -15 z"},"o":{"x_min":0,"x_max":617,"ha":617,"o":"m 592 274 q 592 139 518 61 q 444 -17 309 -17 q 174 -17 100 61 q 25 139 25 274 q 25 411 100 488 q 174 565 309 565 q 443 565 518 488 q 592 410 592 274 z m 417 273 q 417 322 408 354 q 400 387 386 406 q 371 427 352 435 q 333 443 309 443 q 286 443 267 436 q 249 429 233 409 q 218 390 209 356 q 201 323 201 273 q 201 223 209 192 q 217 161 230 142 q 244 123 265 114 q 285 105 310 105 q 331 105 352 114 q 373 123 386 141 q 401 162 409 191 q 417 221 417 273 z"},"N":{"x_min":0,"x_max":771,"ha":771,"o":"m 698 0 l 522 0 l 242 507 l 242 0 l 75 0 l 75 727 l 299 727 l 531 311 l 531 727 l 698 727 z"},"+":{"x_min":0,"x_max":818,"ha":818,"o":"m 724 258 l 474 258 l 474 10 l 345 10 l 345 258 l 95 258 l 95 384 l 345 384 l 345 632 l 474 632 l 474 384 l 724 384 z"},"G":{"x_min":0,"x_max":745,"ha":745,"o":"m 683 42 q 635 22 558 3 q 482 -15 408 -15 q 236 -15 135 84 q 33 183 33 364 q 33 535 135 638 q 236 741 413 741 q 504 741 562 724 q 619 707 680 677 l 680 506 l 663 506 q 650 517 625 535 q 601 554 577 567 q 550 583 514 594 q 478 605 438 605 q 391 605 353 591 q 314 576 284 546 q 255 517 238 472 q 221 427 221 367 q 221 240 285 179 q 349 119 460 119 q 470 119 483 119 q 496 120 506 121 l 506 263 l 365 263 l 365 399 l 683 399 z"},"q":{"x_min":0,"x_max":629,"ha":629,"o":"m 564 -201 l 393 -201 l 393 54 q 375 39 355 25 q 336 11 318 3 q 296 -7 278 -11 q 260 -15 229 -15 q 136 -15 81 62 q 26 140 26 270 q 26 342 45 395 q 63 447 96 486 q 126 522 168 543 q 211 563 258 563 q 299 563 329 553 q 359 543 392 524 l 398 548 l 564 548 z m 393 151 l 393 420 q 380 427 360 431 q 339 435 325 435 q 263 435 232 392 q 201 349 201 272 q 201 191 226 155 q 250 119 306 119 q 328 119 351 127 q 374 136 393 151 z"},"d":{"x_min":0,"x_max":629,"ha":629,"o":"m 564 0 l 393 0 l 393 57 q 376 43 355 28 q 334 12 318 4 q 297 -5 277 -10 q 257 -15 229 -15 q 136 -15 81 62 q 26 140 26 270 q 26 342 45 395 q 63 447 96 486 q 126 522 168 543 q 211 563 258 563 q 301 563 329 554 q 356 545 393 526 l 393 760 l 564 760 z m 393 151 l 393 420 q 380 427 360 431 q 339 435 325 435 q 263 435 232 392 q 201 349 201 272 q 201 191 226 155 q 250 119 306 119 q 328 119 351 127 q 374 136 393 151 z"},"1":{"x_min":0,"x_max":637,"ha":637,"o":"m 576 0 l 95 0 l 95 127 l 249 127 l 249 511 l 95 511 l 95 630 q 129 630 162 634 q 195 639 215 648 q 239 660 252 680 q 265 700 267 729 l 426 729 l 426 127 l 576 127 z"},"5":{"x_min":0,"x_max":637,"ha":637,"o":"m 591 246 q 591 189 572 141 q 553 93 514 58 q 476 23 424 4 q 371 -15 294 -15 q 213 -15 155 -1 q 97 12 59 29 l 59 188 l 75 188 q 89 180 106 170 q 123 160 151 149 q 177 139 203 133 q 230 126 263 126 q 291 126 324 133 q 356 140 376 159 q 391 173 399 191 q 408 209 408 240 q 408 265 397 283 q 387 302 370 313 q 345 330 310 334 q 274 339 249 339 q 209 339 171 333 q 133 326 105 319 l 90 319 l 90 727 l 571 727 l 571 590 l 262 590 l 262 469 q 277 470 297 470 q 317 471 329 471 q 381 471 425 461 q 470 450 504 428 q 545 401 568 356 q 591 311 591 246 z"}}}
